<?xml version="1.0" encoding="utf-8"?>
<!-- Generator: Adobe Illustrator 25.2.0, SVG Export Plug-In . SVG Version: 6.00 Build 0)  -->
<svg version="1.1" id="Layer_1" xmlns="http://www.w3.org/2000/svg" xmlns:xlink="http://www.w3.org/1999/xlink" x="0px" y="0px"
	 viewBox="0 0 2000 2000" style="enable-background:new 0 0 2000 2000;" xml:space="preserve">
<style type="text/css">
	.st0{fill:#F6F6F6;}
	.st1{fill:#1D1D1B;}
	.st2{fill:#FFFFFF;}
</style>
<rect class="st1" width="2000" height="2000"/>
<g>
	<g>
		<path class="st2" d="M1262.16,1313.2c-1.17,8.53-24.43,4.16-36.75-14.73c-12.4-18.81-16.41-31.21-16.41-31.21l1.17,22.02
			l-2.19-2.26c0,0,0,18.23,5.1,23.26c5.1,4.96,3.35,12.47,3.35,12.47s-9.99-2.7-15.09-39.01c-5.1-36.32-28.37-71.46-28.37-71.46
			s0-0.07-0.07-0.15c-0.29-0.8-1.97-5.18-5.32-7.73c-0.88-0.66-1.9-1.24-2.99-1.53c0,0,0.22,0.66,0.36,1.6v0.07
			c0.44,1.97,0.95,5.25,0.15,8.09c-0.51,1.97-1.68,3.65-3.79,4.52c0,0,0.66-1.97,0.95-4.3c0.44-2.63,0.36-5.69-1.68-7.15
			c-0.44-0.29-0.88-0.66-1.24-0.87h-0.07c-2.99-2.11-4.67-2.99-4.67-2.99s-8.24-5.25-7.88,1.24c0.07,1.02,0.22,1.97,0.58,2.92
			c1.09,3.5,3.72,6.34,5.25,7.8h0.07c0.58,0.44,1.02,0.73,1.09,0.73c0.29,0-1.82,0.29-3.87-0.44h-0.07
			c-0.73-0.22-1.39-0.66-1.97-1.24c0,0-0.07,0.51,0.22,1.39v0.07c0.44,1.46,1.82,3.72,5.91,5.11c-1.02-0.15-5.18-1.24-8.09-4.89
			c-1.53-1.9-2.7-4.45-2.92-7.95c-0.07-0.73-0.07-1.46-0.07-2.26c0,0-10.06-1.24-9.99-7c0.07-5.76,9.55-3.79,13.27-9.92l-10.94-8.75
			l1.24,9.41l-11.81-11.23l-0.88,12.47l-5.54,6.71c0,0-23.04,16.41-23.04,16.7c0,0.07,0.66,1.31,1.53,3.06v0.07
			c0.95,1.82,2.11,4.23,2.99,6.49v0.07c1.02,2.7,1.6,5.1,1.02,6.2c-1.68,2.92-5.03,5.18-10.21,3.43c0,0,4.38-2.04,2.26-6.49
			c-0.22-0.44-0.44-0.88-0.66-1.31v-0.07c-1.17-2.33-2.33-4.08-3.94-5.62l-0.07-0.07c-0.88-0.8-1.9-1.53-3.21-2.26
			c-1.6-0.87-2.19,1.09-1.97,4.16v0.07c0.15,1.75,0.51,3.79,1.17,5.98v0.07c0.88,2.77,2.11,5.62,3.72,7.73
			c-1.31-1.6-3.35-4.3-5.25-7.29v-0.07c-1.09-1.68-2.11-3.43-2.92-5.18v-0.07c-1.39-2.99-2.04-5.91-1.09-8.02
			c2.92-6.93,33.91-22.31,33.91-22.31s3.79-24.43-1.75-30.92c-5.54-6.49-8.46-11.38-11.74-13.42c-3.35-2.11-35.88-40.11-28.22-77
			c7.66-36.9-13.05-33.47-22.02-33.47c-0.44,0-0.8,0-1.24,0.07l-1.6,0.15l-14.27,1.47l16.68-8.25l-21.02-1.48l15.04-4.79
			c0,0,9.77-3.87,13.2-8.53c3.35-4.6,32.01-25.74,54.4-8.39c22.39,17.36,21.37,51.63,40.18,72.49
			c18.81,20.78,29.83,58.26,45.14,73.43c15.31,15.1,11.38,33.55,22.17,45.94c1.75,2.04,3.94,4.37,6.34,7l0.07,0.07
			c1.53,1.6,2.99,3.21,4.67,5.03c11.45,12.47,24.79,27.27,23.48,31.36c-1.68,5.47-35-23.99-36.9-25.67
			c0.95,1.6,17.06,27.56,17.5,37.77c0,0-21.44-33.32-31.5-43.24c-0.36-0.36-0.73-0.66-1.02-0.95c0,0,0.15,0.36,0.29,0.95
			c2.7,7.95,21.95,63.37,38.72,75.4C1257.05,1299.28,1263.32,1304.67,1262.16,1313.2z"/>
		<path class="st2" d="M1044.37,1011.07c0,0-15.99,9.61-25.01,12.16c-9.03,2.52-8.92,26.43-8.92,26.43s-2.03-3.14-1.83-14.06
			c0.21-10.96-4.82-11.51-11.89-2.76c-7.06,8.75-29.56,16.05-35.42,15.88c-5.82-0.14-6.51-14.75-6.51-14.75s-8.89,8.89-9.41,16.19
			c-0.52,7.3,14.4,30.8,23.01,36.69c8.61,5.86,6.68,24.32,6.68,24.32c-3.45-13.99-13.78-14.81-13.78-14.81
			c-8.72,1.83-7.92,19.67-7.92,19.67c-6.48-12.99-0.31-20.88,2.03-28.08c2.34-7.2-19.16-28.18-19.16-28.18s-15.92-12.33-26.53,22.02
			c-10.65,34.35-3.17,106.18-3.17,106.18l-6.34,0.52c-0.14-0.83-0.28-1.65-0.41-2.48c-0.93-6.06-1.48-12.2-1.72-18.36
			c-0.52-12.37-0.17-24.77,0.79-37.11c-1.52,12.3-2.45,24.7-2.52,37.14c-0.03,6.2,0.21,12.44,0.9,18.67
			c0.1,0.79,0.17,1.58,0.28,2.38l-4.48,0.38c-0.21-1.03-0.38-2.07-0.55-3.1c-0.96-6.06-1.48-12.2-1.72-18.36
			c-0.52-12.37-0.17-24.77,0.79-37.11c-1.52,12.3-2.45,24.7-2.51,37.14c-0.03,6.2,0.21,12.44,0.9,18.67c0.1,1,0.24,2,0.38,3
			l-5.82,0.48c-0.1-0.72-0.24-1.41-0.34-2.1c-0.93-6.03-1.48-12.2-1.72-18.36c-0.52-12.33-0.17-24.74,0.79-37.07
			c-1.52,12.27-2.45,24.67-2.52,37.11c-0.03,6.24,0.21,12.47,0.9,18.67c0.07,0.65,0.14,1.31,0.24,1.96l-6.89,0.59
			c-9.75-34.45,11.34-124.96,10.89-143.67c-0.45-18.67-27.32-13.2-27.32-13.2c-36.86,5.27-75.8-5.89-75.8-5.89
			c68.7,8.72,80.86-18.43,80.86-18.43l-10.54,6.06l-0.79-9.3c-21.29,25.32-23.5-3.86-23.5-3.86
			c-29.39,18.02-22.29-11.96-22.29-11.96c-37.73,15.4-16.43-23.91-16.43-23.91c-53.92,16.19-16.81-22.29-16.81-22.29
			c-53.3,2.41-13.37-18.67-13.37-18.67c-58.19-1.62-5.68-28.77-5.68-28.77c-48.23-13.78-4.65-23.91-4.65-23.91
			c-43.38-32.01,8.1-22.08,8.1-22.08c-52.3-36.28,7.68-24.32,7.68-24.32c-42.24-41.65,8.27-24.01,8.27-24.01
			c-32.66-51.54,14.64-3.86,16.61-1.89c-45.44-72.8,16.54-2.14,19.16,0.86l-7.55-17.5c-27.91-66.87,24.29,18.71,26.7,22.64
			c-5.96-16.12,5.13-101.29,7.55-20.43c2.45,81.07,86.75,120.89,86.75,120.89l-1.96,18.54c0,0,14.44-46.41,41.58-61.29
			c27.15-14.88,51.47,16.71,51.47,16.71l16.71,6.79l-22.19,0.21c0,0-4.55-2.72-13.88,6.79c-9.3,9.54-28.77,6.89-28.77,6.89
			c6.99,5.48,18.33,3.76,18.33,3.76s-6.99,2.93,0.1,22.39c7.1,19.47-11.75,63.94-13.78,74.49c-2,10.54-8.1,31.7-3.82,32.83
			c4.24,1.1,21.57-8.2,38.79-17.85C1022.6,1007.63,1044.37,1011.07,1044.37,1011.07z"/>
		<path class="st2" d="M1035.77,1246.19c7.31-6.64,15.93-11.75,24.74-16.24l3.31-1.69l3.39-1.51l6.8-3.02
			c2.28-0.97,4.63-1.77,6.95-2.64c2.33-0.84,4.65-1.74,7-2.54c18.81-6.41,38.41-10.11,58.06-12.41l7.38-0.78
			c2.46-0.22,4.92-0.6,7.39-0.67l14.82-0.68c2.47-0.07,4.94-0.26,7.41-0.24l7.41,0.1c4.94,0.06,9.87,0.18,14.8,0.32
			c9.85,0.52,19.67,1.49,29.46,2.37c9.75,1.45,19.49,2.87,29.15,4.67c-9.86,0.05-19.65-0.28-29.42-0.58l-29.28,0.05
			c-19.47,0.69-38.92,1.27-58.17,3.72c-19.25,2.22-38.42,5.33-57.15,10.33l-13.95,4.08l-6.89,2.33l-3.45,1.17l-3.38,1.33
			C1053.06,1237.06,1044.15,1241.05,1035.77,1246.19z"/>
	</g>
	<g>
		<path class="st2" d="M1279.95,630.65H719.98c-49.22,0-89.33,40.04-89.33,89.33v559.97c0,49.3,40.11,89.4,89.33,89.4h559.97
			c49.3,0,89.4-40.11,89.4-89.4V719.98C1369.35,670.68,1329.25,630.65,1279.95,630.65z M1359.36,1279.95
			c0,43.75-35.66,79.34-79.41,79.34H719.98c-43.75,0-79.34-35.59-79.34-79.34V719.98c0-43.75,35.59-79.34,79.34-79.34h559.97
			c43.75,0,79.41,35.59,79.41,79.34V1279.95z"/>
	</g>
</g>
</svg>
