<?xml version="1.0" encoding="utf-8"?>
<!-- Generator: Adobe Illustrator 25.2.0, SVG Export Plug-In . SVG Version: 6.00 Build 0)  -->
<svg version="1.1" id="Layer_1" xmlns="http://www.w3.org/2000/svg" xmlns:xlink="http://www.w3.org/1999/xlink" x="0px" y="0px"
	 viewBox="0 0 2000 2000" style="enable-background:new 0 0 2000 2000;" xml:space="preserve">
<style type="text/css">
	.st0{fill:#F6F6F6;}
	.st1{fill:#1D1D1B;}
	.st2{fill:#FFFFFF;}
</style>
<rect class="st0" width="2000" height="2000"/>
<g>
	<path class="st1" d="M765.68,1190.61c19-4.89,38.31-8.51,57.67-11.74c19.38-3.12,38.85-5.73,58.4-7.67
		c39.09-3.95,78.43-5.71,117.76-5.06c19.66,0.41,39.32,1.25,58.93,2.91c9.81,0.73,19.58,1.92,29.36,2.93
		c9.76,1.28,19.52,2.42,29.22,4.11c38.86,6.03,77.25,15.44,114.14,28.76c-38.01-9.64-76.4-16.97-115.14-21.63
		c-4.84-0.6-9.67-1.22-14.53-1.66l-14.54-1.54c-9.72-0.78-19.42-1.75-29.16-2.26c-4.87-0.25-9.72-0.72-14.59-0.92l-14.6-0.72
		c-4.87-0.21-9.74-0.31-14.62-0.47c-4.87-0.18-9.75-0.25-14.62-0.3c-9.75-0.26-19.5-0.23-29.25-0.25
		c-9.75,0.11-19.51,0.27-29.26,0.54c-19.51,0.44-39,1.49-58.49,2.7c-19.48,1.32-38.96,2.93-58.4,4.99
		C804.49,1185.31,785.07,1187.72,765.68,1190.61z"/>
	<path class="st1" d="M1451,1000.88c0.06,29.41-2.8,58.82-8.34,87.72c-5.41,28.94-13.9,57.27-24.68,84.71
		c-21.72,54.85-54.47,105.46-95.74,148.11c-20.67,21.28-43.38,40.69-67.99,57.43c-6.24,4.04-12.38,8.25-18.73,12.14
		c-6.44,3.72-12.76,7.67-19.31,11.21c-6.64,3.37-13.16,6.98-19.9,10.14l-10.16,4.65c-3.4,1.51-6.73,3.2-10.22,4.5
		c-54.93,23.16-114.7,34.67-174.22,34.25c-59.54-0.62-118.82-13.1-173.28-36.51c-27.24-11.69-53.28-26.05-77.64-42.8
		c-24.42-16.66-47.2-35.67-67.98-56.64c-41.59-41.91-75.03-91.81-97.92-146.25l-4.12-10.28c-1.34-3.44-2.84-6.82-3.97-10.34
		l-3.61-10.47c-1.17-3.5-2.51-6.95-3.45-10.52c-2.01-7.11-4.33-14.13-6.11-21.3c-1.67-7.2-3.61-14.34-5.06-21.59
		c-6.04-28.95-9.22-58.52-9.55-88.15c-0.6-59.22,10.15-118.85,32.69-173.97c11.18-27.57,25.11-54.05,41.49-78.94
		c16.36-24.91,35.34-48.09,56.31-69.3c42-42.36,92.39-76.44,147.52-99.54c55.09-23.2,114.95-34.86,174.69-34.88
		c59.73,0.29,119.52,12.04,174.46,35.44c55.03,23.15,105,57.79,146.23,100.5c41.23,42.73,73.98,93.35,95.69,148.22
		C1439.86,883.24,1451.13,942.06,1451,1000.88z M1449.48,1000.88c-0.16-29.31-3.05-58.61-8.94-87.3
		c-6-28.65-14.64-56.77-26.34-83.56c-23.2-53.65-57.05-102.45-98.86-142.77c-20.89-20.18-43.77-38.19-68-54.01
		c-6.17-3.78-12.23-7.74-18.47-11.38c-6.34-3.47-12.57-7.15-19-10.45c-6.49-3.18-12.85-6.61-19.43-9.6l-9.91-4.38
		c-3.32-1.42-6.56-3.02-9.96-4.24c-26.78-10.79-54.54-19.11-82.86-24.62c-28.32-5.51-57.16-8.2-86.01-8.13
		c-28.84,0.11-57.67,2.83-85.95,8.44c-28.28,5.59-55.99,13.98-82.69,24.86c-53.39,21.82-102.43,54.34-143.48,95.02
		c-40.98,40.73-74.18,89.41-96.76,142.76c-11.27,26.68-19.97,54.46-25.98,82.85c-5.98,28.4-9.15,57.42-9.52,86.51
		c-0.5,58.15,10.1,116.65,32.32,170.68c22.02,54.07,55.19,103.6,96.64,144.74c20.76,20.53,43.58,38.96,67.97,54.94
		c24.44,15.9,50.4,29.39,77.41,40.18c54,21.66,112.14,32.26,170.04,31.68c28.96-0.2,57.84-3.32,86.2-8.91
		c28.35-5.67,56.12-14.14,82.9-25.03c3.4-1.23,6.64-2.85,9.96-4.28l9.9-4.42c6.57-3.01,12.93-6.47,19.42-9.68
		c6.42-3.32,12.65-7.02,18.99-10.51c6.24-3.65,12.3-7.63,18.46-11.43c24.2-15.91,47.08-33.93,67.96-54.15
		c41.76-40.41,75.62-89.22,98.81-142.89c11.7-26.8,20.32-54.93,26.31-83.59C1446.5,1059.5,1449.35,1030.19,1449.48,1000.88z"/>
	<g>
		<path class="st1" d="M995.52,972.29l2.04,1.26c4.81-6.08,11.48-9.97,18.27-13.62c-1.55-2.46-4.43-4.16-11.19-4.16
			c-14.82,0-24.42,9.93-24.42,9.93l-29.96,23.61c0,0-21.33-10.26-24.1-21.5c-2.77-11.24-20.3-34.46-20.3-34.46
			s7.71-10.75,9.88-25.62c2.17-14.87,16.77-23.93,26.3-29.06c9.52-5.13,18.15-1.3,26.78,3.26c8.63,4.56,16.53,5.78,16.53,5.78
			l-15.22-23.36c0,0,31.15,19.5,27.6,12.94c-4.21-7.76-21.74-34.25-21.74-34.25c-1.3-21.71-14.55-34.08-45.37-50.58
			c-30.83-16.5-66,16.61-95.63,37.45c-29.63,20.84-57.31,30.61-76.72,58.94c-19.41,28.33-81.54,148.93-82.74,155.33
			c-1.19,6.4-17.91,31.91-13.24,43.09c4.67,11.18,15.74-4.45,15.74-4.45s-12.05,28.44-1.85,30.72c5.17,1.16,9.95-6.69,13.41-14.72
			c-1.58,7.47-1.26,14.96,6.02,15.8c8.46,0.98,14.66-12.02,18.47-23.52c-0.31,6.15,1.37,12.08,8.24,14.08
			c16.06,4.67,25.83-46.68,25.83-46.68s-0.65,31.81,12.7,36.2c13.35,4.4,14.65-51.4,17.58-52.81c2.93-1.41,26.81,11.83,28.55,14.55
			c1.74,2.71,11.61,11.83,11.61,31.37c0,19.54,18.56,18.02,18.56,18.02l17.91,41.79c0,0,2.06,4.88-9.33,10.2
			c-11.4,5.32-7.38,16.5-3.69,23.34c3.69,6.84,15.52,0,15.52,0c-10.96-14.11,3.47-21.98,6.19-22.25c2.71-0.27,9.99,5.7,11.51,9.55
			c1.52,3.85,6.51,4.78,12.48,3.47c5.97-1.3,17.69,1.41,17.69-6.84c0-8.25-3.04-6.95-9.88-6.95c-6.84,0-16.61-7.06-16.61-7.06
			l-33.43-48.41l0.76-8.58l-5.75-17.69l2.48,0.98l-6.83-19.86l4.02,0.98l-4.88-24.1c0,0,18.56-18.89,28.49-24.91
			c8.76-5.31,20.04-27.2,22.59-32.3c0,0,8.92-20.62,9.24-20.45c0.25,0.13-3.6,15.15-5.35,21.91l15.36,11.57
			c0,0,19.05,15.52,26.21,21.71c7.16,6.19,17.91,3.09,20.84-4.89c2.93-7.98,28.33-28.44,28.33-28.44s1.83-2.24,3.79-1.65
			L995.52,972.29z M689.8,1050.99l10.89-22.41c3.61-7.45,7.26-14.88,10.68-22.4c3.49-7.49,6.86-15.03,9.92-22.69
			c3.04-7.67,5.92-15.4,8.03-23.46c-0.6,8.34-2.76,16.51-5.32,24.45c-2.55,7.97-5.82,15.67-9.28,23.26
			c-3.52,7.56-7.34,14.98-11.49,22.19C699.08,1037.15,694.71,1044.25,689.8,1050.99z M711.96,1042.11
			c-4.14,7.22-8.52,14.32-13.42,21.06l10.88-22.41c3.61-7.45,7.26-14.88,10.68-22.4c3.49-7.49,6.86-15.03,9.92-22.69
			c3.04-7.67,5.92-15.4,8.03-23.46c-0.6,8.34-2.76,16.51-5.32,24.45c-2.55,7.97-5.81,15.67-9.28,23.26
			C719.93,1027.47,716.11,1034.89,711.96,1042.11z M744.57,1012.48c-2.79,8.26-5.92,16.4-9.39,24.39
			c-3.46,7.99-7.17,15.88-11.46,23.47l8.79-24.53c2.9-8.17,5.86-16.3,8.56-24.52c1.43-4.08,2.73-8.21,4.03-12.32l1.93-6.19l1.8-6.22
			c2.32-8.32,4.45-16.68,5.93-25.28c0.06,8.73-1.32,17.44-3.13,25.98C749.84,995.84,747.29,1004.2,744.57,1012.48z M769.05,977.76
			c-0.76,8.65-2.22,17.21-4.02,25.69c-1.93,8.45-4.22,16.8-6.96,25.01c-2.74,8.2-5.82,16.3-9.6,24.08c2.35-8.32,4.64-16.6,6.85-24.9
			c2.16-8.31,4.27-16.62,6.11-24.98c1.84-8.36,3.43-16.77,4.76-25.23c1.2-8.47,2.08-16.98,2.47-25.62
			C769.81,960.38,769.73,969.11,769.05,977.76z M805.33,915.56c-0.3,5.21-1.58,10.52-4.22,15.31c-1.43,2.32-3,4.6-5.05,6.49
			c-0.97,0.99-2.09,1.84-3.23,2.66c-0.59,0.39-1.16,0.8-1.81,1.13c-0.1,0.06-0.2,0.11-0.3,0.16c-0.02,7.65-0.2,15.28-0.71,22.88
			c-0.25,4.08-0.53,8.15-0.84,12.22l-1.16,12.18c-0.84,8.11-1.82,16.21-3,24.28c-1.16,8.07-2.46,16.13-4.09,24.13
			c0.19-8.17,0.56-16.31,0.97-24.44c0.39-8.13,0.87-16.25,1.32-24.36l1.35-24.32c0.33-8.1,0.83-16.19,0.88-24.25l0.01-1.88l1.8-0.63
			c0.29-0.1,0.87-0.35,1.32-0.59c0.49-0.22,0.95-0.53,1.43-0.81c0.92-0.61,1.86-1.25,2.67-2.03c1.74-1.46,3.11-3.32,4.4-5.22
			c0.54-1.02,1.15-2.02,1.67-3.06l1.33-3.27l0.95-3.45c0.36-1.14,0.4-2.37,0.64-3.55l0.3-1.79c0.08-0.6,0.08-1.22,0.13-1.82
			l0.21-3.67c-0.08-2.45-0.09-4.93-0.28-7.41c-0.33-2.46-0.51-4.96-0.9-7.44c-0.48-2.46-0.88-4.94-1.32-7.44
			c0.84,2.37,1.7,4.76,2.5,7.17c0.76,2.42,1.27,4.92,1.88,7.4c0.48,2.51,0.82,5.06,1.11,7.62l0.13,3.88
			c0.01,0.65,0.07,1.3,0.04,1.95L805.33,915.56z"/>
		<path class="st1" d="M1419.77,957.2c-0.53-11.63-8.99-12.96-12.16-13.05c1.9-0.36,5.25-2.6,3.69-14.3
			c-1.54-11.59-11.92-9.18-17.49-6.99c2.32-1.59,4.71-4.59,3.33-9.94c-2.44-9.44-15.55-5.94-15.55-5.94
			c-3.09-24.26-46.65,8.71-46.65,8.71c-2.12-13.03-29.47-0.98-35.98,13.03c-6.51,14,3.91-1.3,2.44,31.26
			c-1.47,32.56,10.58,10.37,4.07,47.71c-6.51,37.34-69.69,18.46-69.69,18.46s14.33-0.44,38.64-0.01
			c24.31,0.43,31.7-22.04,24.53-39.29c-7.16-17.26,4.88-27.35-4.88-41.68c-9.77-14.33,16.61-40.22,16.61-40.22
			s16.93-4.56,35.17-17.58c18.24-13.03,4.72-32.73,4.72-32.73c5.8-18.08-5.25-20.02-8.75-20.19c1.1-0.38,2.73-2.22,3.05-9.77
			c0.49-11.56-22.47-6.84-22.47-6.84c-68.38,7.49-135.47,54.82-135.47,54.82c36.47-31.48,67.95-42.22,76.69-45.86
			c13.39-5.57,0.33-19.21,0.33-19.21c7.82-13.68,0.81-19.38,0.81-19.38c3.26-9.77-9.44-15.31-9.44-15.31
			c1.95-13.68-11.23-14.65-11.23-14.65s-6.68-21.82-18.4-3.26c-11.72,18.56-77.04,73.73-93.24,82.28
			c-66.91,35.31-70.58,93.16-69.61,113.54c24.78,4.04,43.67,14.55,43.67,14.55c-16.93-6.95-35.52-7.42-43-7.29
			c0.01,0.07,0.02,0.12,0.02,0.12c-29.47-0.16-46.73,5.37-46.73,5.37l9.44,9.77l0.81,17.58l-12.37,11.4c0,0,8.14,9.5,18.56,18.83
			c10.42,9.34,9.68,44.68,30.18,61.22c42.13,33.99,111.84,48,111.84,48c-9.45,9.85-23.83,14.66-41.96,15.63
			c0,0-3.75,4.23-23.93,5.37c-20.19,1.14-17.01,23.85-17.01,23.85s9.85-5.37,16.85-8.79c7-3.42,20.03,5.86,28.09,3.91
			c8.06-1.95,9.93,4.64,14.08,7.08c4.15,2.44,3.74,14.17,3.74,14.17s6.92-11.89,7.98-16.69c1.06-4.8-9.36-11.15-8.3-14.49
			s27.45-5.85,34.94-7.15c7.49-1.3,10.24-7.64,8.2-16.27c-2.04-8.63,5.29-4.91,48.71-29.22c43.42-24.31,51.89-56.88,51.89-56.88
			l-16.07-1.09c0,0,116.8-42.33,117.99-53.08c1.19-10.75-7.54-9.72-7.54-9.72S1420.42,971.53,1419.77,957.2z M1077.85,931.8
			c0.78-9.14,3.23-18.09,6.45-26.73c3.33-8.6,7.76-16.84,13.32-24.3l2.12-2.77c0.7-0.93,1.41-1.85,2.23-2.69l4.76-5.13l5.22-4.67
			l1.31-1.17l1.41-1.04l2.83-2.07l2.84-2.06c0.95-0.68,2.01-1.19,3.01-1.79l6.09-3.47c3.98-2.16,8.05-4.15,11.93-6.5
			c15.79-8.95,30.85-19.24,45.65-29.88c7.38-5.35,14.72-10.77,21.95-16.35c7.3-5.49,14.44-11.19,21.59-16.9
			c-13.12,12.76-26.99,24.77-41.47,36.01c-7.18,5.7-14.68,11-22.18,16.29c-7.63,5.11-15.32,10.15-23.34,14.68
			c-3.95,2.36-8.12,4.36-12.19,6.53l-5.84,3.27c-0.96,0.57-1.98,1.04-2.89,1.69l-2.74,1.92l-2.75,1.91l-1.37,0.96l-1.27,1.09
			l-5.1,4.35l-4.68,4.81c-0.81,0.77-1.54,1.63-2.24,2.5l-2.15,2.59c-5.6,7.01-10.31,14.78-14.06,23.02
			C1082.47,914.13,1079.61,922.83,1077.85,931.8z M1144.53,871.54c-1.38,0.74-2.78,1.44-4.14,2.2l-4.03,2.41
			c-5.32,3.3-10.23,7.26-14.79,11.58c-9.09,8.72-16.44,19.25-22.3,30.68c4.16-12.15,10.88-23.6,19.85-33.11
			c4.44-4.79,9.53-9,14.96-12.67c1.37-0.9,2.78-1.73,4.18-2.6c1.42-0.81,2.88-1.57,4.32-2.36c2.84-1.5,5.65-2.93,8.43-4.49
			c11.17-6.08,21.98-12.87,32.68-19.85c10.69-7.01,21.22-14.29,31.85-21.52c-9.49,8.67-19.5,16.76-29.89,24.35
			c-10.37,7.62-21.2,14.65-32.52,20.91C1150.3,868.63,1147.37,870.08,1144.53,871.54z M1152.32,945.19
			c6.67-13.27,15.36-25.69,26.06-36.22l4.05-3.91c1.38-1.27,2.84-2.45,4.26-3.68l2.14-1.83l2.23-1.72c1.5-1.13,2.95-2.33,4.49-3.4
			c6.11-4.37,12.6-8.19,19.25-11.66c13.4-6.78,27.73-11.64,42.38-14.66c14.64-2.99,29.66-4.34,44.5-3.26
			c-7.43,0.18-14.82,0.79-22.13,1.9c-7.32,1.02-14.58,2.42-21.74,4.16c-7.15,1.79-14.22,3.86-21.12,6.4
			c-6.9,2.53-13.71,5.33-20.21,8.74c-13.1,6.62-25.29,15.01-36.1,24.98c-5.35,5.03-10.5,10.32-15.09,16.1
			C1160.45,932.77,1156.43,938.99,1152.32,945.19z M1181.13,935.17c9.54-10.22,20.66-19.03,32.88-25.92
			c6.13-3.39,12.48-6.4,19.02-8.91c6.55-2.47,13.27-4.49,20.1-5.98c13.63-3,27.71-4.2,41.52-2.76c-6.93-0.02-13.82,0.5-20.64,1.51
			c-6.82,0.92-13.57,2.31-20.21,4.04c-13.27,3.48-26.09,8.58-37.98,15.31c-11.94,6.66-22.85,15.09-32.62,24.7
			c-9.64,9.74-18.19,20.64-25.57,32.37C1163.75,957.11,1171.64,945.44,1181.13,935.17z M1187.78,963.72
			c-8.48,9.14-16.02,19.2-22.77,29.85c5.49-11.35,12.33-22.12,20.62-31.77c4.06-4.9,8.65-9.34,13.4-13.58
			c4.8-4.2,10.01-7.93,15.39-11.37c10.89-6.69,22.89-11.6,35.38-14.2c12.45-2.58,25.43-3.17,37.81-0.61
			c-6.27-0.59-12.56-0.45-18.77,0.17c-6.22,0.61-12.36,1.71-18.39,3.23c-12.03,3.1-23.56,8-34.08,14.54
			C1205.82,946.52,1196.24,954.58,1187.78,963.72z"/>
		<path class="st1" d="M1157.67,1111.86c1.97,8.54-0.58,14.75-7.84,16.26c-0.12,0-0.23,0.06-0.35,0.06
			c-7.49,1.28-33.92,3.78-34.97,7.14c-0.75,2.44,4.71,6.56,7.14,10.51c-3.14,0.58-7.2,1.1-12.55,1.39
			c-1.05,0.06-2.09,0.17-3.08,0.35c-2.09-1.92-4.65-3.37-9-2.32c-8.07,1.92-21.08-7.32-28.11-3.95c-6.97,3.43-16.84,8.83-16.84,8.83
			s-3.19-22.71,17.02-23.87c20.21-1.1,23.93-5.34,23.93-5.34c8.77-0.47,16.67-1.86,23.58-4.3c6.8-2.38,12.55-5.81,17.25-10.34
			c0.81-0.06,1.57,0,2.32-0.06c1.39-0.12,2.73-0.46,4.07-0.52c2.96-0.17,5.87-0.23,8.83-0.23c2.79-0.06,5.63-0.17,8.42-0.17
			c0.81-0.06,2.09-0.17,2.85,0.23C1157.43,1107.33,1156.91,1108.84,1157.67,1111.86z"/>
		<polygon class="st1" points="1018.58,963.04 977.51,975.58 1010.86,981.07 987.84,990.02 1028.67,1011.2 1086.39,995 
			1062.95,968.75 		"/>
	</g>
</g>
</svg>
